<?xml version="1.0" encoding="utf-8"?>
<!-- Generator: Adobe Illustrator 22.1.0, SVG Export Plug-In . SVG Version: 6.00 Build 0)  -->
<svg version="1.1" id="Ebene_1" xmlns="http://www.w3.org/2000/svg" xmlns:xlink="http://www.w3.org/1999/xlink" x="0px" y="0px"
	 viewBox="0 0 617.5 617.5" style="enable-background:new 0 0 617.5 617.5;" xml:space="preserve">
<style type="text/css">
	.st0{fill:#FFFFFF;}
</style>
<g>
	<path class="st0" d="M308.7,4C140.4,4,4,140.4,4,308.7s136.4,304.7,304.7,304.7S613.5,477,613.5,308.7S477,4,308.7,4z M308.7,575.1
		c-147.1,0-266.4-119.3-266.4-266.4S161.6,42.3,308.7,42.3s266.4,119.3,266.4,266.4S455.9,575.1,308.7,575.1z"/>
	<path class="st0" d="M308.7,60.6c-137,0-248.1,111.1-248.1,248.1c0,137,111.1,248.1,248.1,248.1s248.1-111.1,248.1-248.1
		C556.8,171.7,445.7,60.6,308.7,60.6z M260.7,145.9c4.5,22.4,24.3,39.3,48,39.3s43.5-16.9,48-39.3c27.9,8.2,52.7,23.3,72.6,43.4
		l-51.1,41.8c-18.4-16.5-42.8-26.6-69.5-26.6c-27.8,0-53.1,10.9-71.8,28.7l-51-41.7C206.2,170.4,231.8,154.4,260.7,145.9z
		 M308.7,357.7c-27,0-49-21.9-49-49s21.9-49,49-49s49,21.9,49,49S335.8,357.7,308.7,357.7z M181.2,420.7
		c12.5-8.9,20.7-23.4,20.7-39.9c0-27-21.9-49-49-49c-4.2,0-8.2,0.6-12.1,1.6c-1.2-8-1.8-16.3-1.8-24.6c0-34.7,10.4-66.9,28.2-93.7
		l51.2,41.8c-8.8,15.3-13.9,33-13.9,51.9c0,52.7,39.1,96.2,89.9,103.2v65.9C249.3,474.1,209.3,452.7,181.2,420.7z M476.7,333.4
		c-3.9-1-7.9-1.6-12.1-1.6c-27,0-49,21.9-49,49c0,16.5,8.2,31,20.7,39.9c-27.9,31.7-67.4,53-111.9,57.1v-66
		c50.1-7.5,88.6-50.8,88.6-103c0-20-5.7-38.7-15.5-54.6l51-41.7c18.9,27.4,30,60.5,30,96.3C478.5,317.1,477.9,325.3,476.7,333.4z"/>
</g>
</svg>
